<svg version="1.1" id="Layer_1" xmlns="http://www.w3.org/2000/svg" xmlns:xlink="http://www.w3.org/1999/xlink" x="0px" y="0px" viewBox="0 0 500 500" style="width: 125px;" xml:space="preserve" data-imageid="data-processing-67" imageName="Data Processing" class="illustrations_image">
<style type="text/css">
	.st0_data-processing-67{fill:#F56132;}
	.st1_data-processing-67{fill:#093F68;}
	.st2_data-processing-67{fill:#FFBC0E;}
	.st3_data-processing-67{fill:#68E1FD;}
	.st4_data-processing-67{fill:#FFFFFF;}
	.st5_data-processing-67{fill:#DFEAEF;}
</style>
<g id="files_data-processing-67">
	<path class="st0_data-processing-67" d="M204,145.3h122.6c6.3,0,11.4,5.1,11.4,11.4v159.3c0,6.3-5.1,11.4-11.4,11.4H204c-6.3,0-11.4-5.1-11.4-11.4&#10;&#9;&#9;V156.7C192.6,150.4,197.7,145.3,204,145.3z"/>
	<path class="st1_data-processing-67" d="M326.9,329.4H203.6c-7.1,0-12.9-5.8-12.9-13v-160c0-7.2,5.8-13,12.9-13h123.3c7.2,0,13,5.8,13,13v160&#10;&#9;&#9;C339.9,323.6,334.1,329.4,326.9,329.4z M203.6,147.2c-5.1,0-9.2,4.1-9.2,9.2v160c0,5.1,4.1,9.2,9.2,9.2h123.3&#10;&#9;&#9;c5.1,0,9.2-4.1,9.2-9.2v-160c0-5.1-4.1-9.2-9.2-9.2L203.6,147.2z"/>
	<path class="st2_data-processing-67" d="M188,160.4h122.7c6.3,0,11.4,5.1,11.4,11.4v159.4c0,6.3-5.1,11.4-11.4,11.4H188c-6.3,0-11.4-5.1-11.4-11.4&#10;&#9;&#9;V171.8C176.6,165.5,181.7,160.4,188,160.4z"/>
	<path class="st1_data-processing-67" d="M311,344.5H187.7c-7.1,0-12.9-5.8-12.9-13v-160c0-7.2,5.8-13,12.9-13H311c7.2,0,13,5.8,13,13l0,0v160&#10;&#9;&#9;C324,338.7,318.2,344.5,311,344.5z M187.7,162.3c-5.1,0-9.2,4.1-9.2,9.2v160c0,5.1,4.1,9.2,9.2,9.2H311c5.1,0,9.2-4.1,9.2-9.2v-160&#10;&#9;&#9;c0-5.1-4.1-9.2-9.2-9.2L187.7,162.3z"/>
	<path class="st3_data-processing-67 targetColor" d="M297.7,354.4H171.8c-5.4,0-9.8-4.4-9.8-9.8V181.9c0-5.4,4.4-9.8,9.8-9.8h103.2l32.5,29.8v142.6&#10;&#9;&#9;C307.4,350,303.1,354.4,297.7,354.4z" style="fill: rgb(42, 63, 140);"/>
	<path class="st1_data-processing-67" d="M297.7,356.2H171.8c-6.4,0-11.6-5.2-11.6-11.6V181.9c0-6.4,5.2-11.6,11.6-11.6h103.2c0.5,0,0.9,0.2,1.3,0.5&#10;&#9;&#9;l32.5,29.8c0.4,0.4,0.6,0.9,0.6,1.4v142.6C309.3,351,304.1,356.2,297.7,356.2z M171.8,174.1c-4.4,0-7.9,3.5-7.9,7.9v162.6&#10;&#9;&#9;c0,4.4,3.5,7.9,7.9,7.9h125.9c4.4,0,7.9-3.5,7.9-7.9V202.8l-31.4-28.8H171.8z"/>
	<path class="st3_data-processing-67 targetColor" d="M274.9,172.2v22.6c0,4.1,3.3,7.3,7.3,7.3h25.2L274.9,172.2z" style="fill: rgb(42, 63, 140);"/>
	<path class="st1_data-processing-67" d="M307.4,204h-25.2c-5.1,0-9.2-4.1-9.2-9.2v-22.6c0-1,0.8-1.9,1.9-1.9c0.5,0,0.9,0.2,1.3,0.5l32.5,30&#10;&#9;&#9;c0.6,0.5,0.7,1.3,0.5,2.1C308.9,203.6,308.2,204,307.4,204z M276.8,176.4v18.4c0,3,2.4,5.5,5.5,5.5h20.4L276.8,176.4z"/>
	<path class="st4_data-processing-67" d="M281.7,277.2h-24.8c-2.1,0.1-3.8-1.5-3.9-3.6c-0.1-2.1,1.5-3.8,3.6-3.9c0.1,0,0.3,0,0.4,0h24.8&#10;&#9;&#9;c2.1-0.1,3.8,1.5,3.9,3.6c0.1,2.1-1.5,3.8-3.6,3.9C281.9,277.2,281.8,277.2,281.7,277.2z"/>
	<path class="st4_data-processing-67" d="M249.4,303h-21.6c-2.1,0.1-3.8-1.5-3.9-3.6c-0.1-2.1,1.5-3.8,3.6-3.9c0.1,0,0.3,0,0.4,0h21.6&#10;&#9;&#9;c2.1,0.1,3.7,1.9,3.6,3.9C252.8,301.4,251.3,302.9,249.4,303z"/>
	<path class="st4_data-processing-67" d="M234.7,211.9h-42.2c-2.1,0-3.7-1.7-3.7-3.7c0-2.1,1.7-3.7,3.7-3.7h42.2c2.1,0,3.7,1.7,3.7,3.7&#10;&#9;&#9;C238.5,210.2,236.8,211.9,234.7,211.9C234.7,211.9,234.7,211.9,234.7,211.9z"/>
	<path class="st4_data-processing-67" d="M281.7,251.5h-89.1c-2.1-0.1-3.7-1.9-3.6-3.9c0.1-1.9,1.6-3.5,3.6-3.6h89.1c2.1-0.1,3.8,1.5,3.9,3.6&#10;&#9;&#9;c0.1,2.1-1.5,3.8-3.6,3.9C281.9,251.5,281.8,251.5,281.7,251.5z"/>
	<path class="st4_data-processing-67" d="M237.1,277.2h-44.6c-2.1-0.1-3.7-1.9-3.6-3.9c0.1-1.9,1.6-3.5,3.6-3.6h44.6c2.1-0.1,3.8,1.5,3.9,3.6&#10;&#9;&#9;c0.1,2.1-1.5,3.8-3.6,3.9C237.4,277.2,237.2,277.2,237.1,277.2z"/>
	<path class="st4_data-processing-67" d="M209.8,303h-17.3c-2.1-0.1-3.7-1.9-3.6-3.9c0.1-1.9,1.6-3.5,3.6-3.6h17.3c2.1,0.1,3.7,1.9,3.6,3.9&#10;&#9;&#9;C213.3,301.4,211.7,302.9,209.8,303L209.8,303z"/>
	<path class="st4_data-processing-67" d="M242.3,328.7h-49.8c-2.1-0.1-3.7-1.9-3.6-3.9c0.1-1.9,1.6-3.5,3.6-3.6h49.8c2.1,0.1,3.7,1.9,3.6,3.9&#10;&#9;&#9;C245.8,327,244.2,328.6,242.3,328.7L242.3,328.7z"/>
</g>
<g id="lines_data-processing-67">
	<path class="st5_data-processing-67" d="M337.2,407.6h-13.5c-1-0.1-1.8-1-1.7-2c0.1-0.9,0.8-1.7,1.7-1.7h13.5c1,0.1,1.8,1,1.7,2&#10;&#9;&#9;C338.9,406.8,338.1,407.5,337.2,407.6z M310.5,407.6h-13.2c-1,0.1-1.9-0.7-2-1.7s0.7-1.9,1.7-2c0.1,0,0.2,0,0.3,0h13.2&#10;&#9;&#9;c1,0.1,1.8,1,1.7,2C312.2,406.8,311.5,407.5,310.5,407.6L310.5,407.6z M284,407.6h-13.2c-1-0.1-1.8-1-1.7-2&#10;&#9;&#9;c0.1-0.9,0.8-1.7,1.7-1.7H284c1,0.1,1.8,1,1.7,2C285.7,406.8,284.9,407.5,284,407.6L284,407.6z M257.6,407.6h-13.2&#10;&#9;&#9;c-1-0.1-1.8-1-1.7-2c0.1-0.9,0.8-1.7,1.7-1.7h13.2c1,0.1,1.8,1,1.7,2C259.2,406.8,258.5,407.5,257.6,407.6z M231.1,407.6h-13.2&#10;&#9;&#9;c-1-0.1-1.8-1-1.7-2c0.1-0.9,0.8-1.7,1.7-1.7h13.2c1,0.1,1.8,1,1.7,2C232.8,406.8,232,407.5,231.1,407.6z M204.6,407.6h-13.2&#10;&#9;&#9;c-1-0.1-1.8-1-1.7-2c0.1-0.9,0.8-1.7,1.7-1.7h13.2c1,0.1,1.8,1,1.7,2C206.3,406.8,205.5,407.5,204.6,407.6z M178.1,407.6h-13.2&#10;&#9;&#9;c-1,0.1-1.9-0.7-2-1.7c-0.1-1,0.7-1.9,1.7-2c0.1,0,0.2,0,0.3,0h13.2c1,0.1,1.8,1,1.7,2C179.8,406.8,179.1,407.5,178.1,407.6z&#10;&#9;&#9; M151.8,406.3c-0.1,0-0.3,0-0.4,0c-4.5-1-8.8-2.6-12.8-4.8c-0.9-0.5-1.3-1.6-0.8-2.5s1.6-1.3,2.5-0.8c3.8,2,7.8,3.5,11.9,4.4&#10;&#9;&#9;c1,0.2,1.7,1.2,1.4,2.2C153.4,405.7,152.6,406.3,151.8,406.3L151.8,406.3z M350.3,405.8c-1,0-1.9-0.8-1.9-1.9&#10;&#9;&#9;c0-0.9,0.6-1.6,1.4-1.8c4.1-1.1,8-2.8,11.7-4.9c0.9-0.5,2-0.2,2.6,0.7s0.2,2-0.7,2.6l0,0c-4,2.3-8.2,4.1-12.6,5.3&#10;&#9;&#9;C350.6,405.8,350.4,405.8,350.3,405.8L350.3,405.8z M128.6,394.1c-0.5,0-0.9-0.2-1.3-0.5c-3.4-3.1-6.3-6.7-8.7-10.5&#10;&#9;&#9;c-0.6-0.9-0.3-2,0.5-2.6c0.9-0.6,2-0.3,2.6,0.5c0,0,0,0,0,0c2.3,3.6,5,6.9,8.1,9.8c0.8,0.7,0.8,1.9,0.1,2.6&#10;&#9;&#9;C129.6,393.9,129.1,394.1,128.6,394.1L128.6,394.1z M372.9,392.6c-1,0-1.9-0.9-1.9-1.9c0-0.5,0.2-0.9,0.5-1.3c3-3,5.6-6.4,7.7-10.1&#10;&#9;&#9;c0.5-0.9,1.7-1.2,2.6-0.7s1.2,1.7,0.7,2.6l0,0c-2.3,4-5.1,7.6-8.3,10.9C373.9,392.4,373.4,392.6,372.9,392.6L372.9,392.6z&#10;&#9;&#9; M114.7,371.9c-0.8,0-1.5-0.5-1.8-1.3c-1.4-4.4-2.1-8.9-2.3-13.5c0-1,0.8-1.9,1.8-2c1-0.1,1.9,0.7,1.9,1.7c0,0,0,0,0,0.1&#10;&#9;&#9;c0.2,4.3,0.9,8.5,2.1,12.5c0.3,1-0.2,2-1.2,2.3C115,371.9,114.8,371.9,114.7,371.9L114.7,371.9z M385.9,369.9c-0.2,0-0.3,0-0.5-0.1&#10;&#9;&#9;c-1-0.3-1.6-1.3-1.3-2.3c0,0,0,0,0,0c1.1-4.1,1.6-8.3,1.6-12.5c0-1,0.8-1.9,1.9-1.9c1,0,1.8,0.8,1.9,1.8c0,0,0,0,0,0v0.1&#10;&#9;&#9;c0,4.5-0.6,9.1-1.7,13.5C387.5,369.4,386.8,369.9,385.9,369.9L385.9,369.9z M112.4,345.7c-1,0-1.9-0.8-1.9-1.9v-13.2&#10;&#9;&#9;c0-1,0.8-1.9,1.9-1.9c1,0,1.9,0.8,1.9,1.9c0,0,0,0,0,0v13.2C114.3,344.9,113.4,345.7,112.4,345.7&#10;&#9;&#9;C112.4,345.7,112.4,345.7,112.4,345.7z M387.6,343.6c-1,0-1.9-0.8-1.9-1.9v-13.2c0-1,0.8-1.9,1.9-1.9c1,0,1.9,0.8,1.9,1.9&#10;&#9;&#9;c0,0,0,0,0,0v13.2C389.5,342.8,388.7,343.6,387.6,343.6C387.6,343.6,387.6,343.6,387.6,343.6L387.6,343.6z M112.4,319.2&#10;&#9;&#9;c-1,0-1.9-0.8-1.9-1.9v-13.2c0-1,0.8-1.9,1.9-1.9c1,0,1.9,0.8,1.9,1.9v13.2C114.3,318.4,113.4,319.2,112.4,319.2&#10;&#9;&#9;C112.4,319.2,112.4,319.2,112.4,319.2L112.4,319.2z M387.6,317.1c-1,0-1.9-0.8-1.9-1.9V302c0-1,0.8-1.9,1.9-1.9&#10;&#9;&#9;c1,0,1.9,0.8,1.9,1.9v13.2C389.5,316.3,388.7,317.1,387.6,317.1C387.6,317.1,387.6,317.1,387.6,317.1L387.6,317.1z M112.4,292.7&#10;&#9;&#9;c-1,0-1.9-0.8-1.9-1.9v-13.2c0-1,0.8-1.9,1.9-1.9c1,0,1.9,0.8,1.9,1.9v13.2C114.3,291.9,113.4,292.7,112.4,292.7L112.4,292.7z&#10;&#9;&#9; M387.6,290.7c-1,0-1.9-0.8-1.9-1.9v-13.2c0-1,0.8-1.9,1.9-1.9c1,0,1.9,0.8,1.9,1.9v13.2C389.5,289.8,388.6,290.7,387.6,290.7&#10;&#9;&#9;C387.6,290.7,387.6,290.7,387.6,290.7L387.6,290.7z M112.4,266.3c-1,0-1.9-0.8-1.9-1.9v-13.2c0-1,0.8-1.9,1.9-1.9&#10;&#9;&#9;c1,0,1.9,0.8,1.9,1.9v13.2C114.3,265.4,113.4,266.3,112.4,266.3C112.4,266.3,112.4,266.3,112.4,266.3L112.4,266.3z M387.6,264.2&#10;&#9;&#9;c-1,0-1.9-0.8-1.9-1.9v-13.2c0-1,0.8-1.9,1.9-1.9c1,0,1.9,0.8,1.9,1.9v13.2C389.5,263.3,388.6,264.2,387.6,264.2L387.6,264.2z&#10;&#9;&#9; M112.4,239.8c-1,0-1.9-0.8-1.9-1.8c0,0,0,0,0,0v-13.2c0-1,0.8-1.9,1.9-1.9c1,0,1.9,0.8,1.9,1.9v13.2&#10;&#9;&#9;C114.3,238.9,113.4,239.8,112.4,239.8L112.4,239.8z M387.6,237.7c-1,0-1.9-0.8-1.9-1.9v-13.2c0-1,0.8-1.9,1.9-1.9&#10;&#9;&#9;c1,0,1.9,0.8,1.9,1.9v13.2C389.5,236.9,388.7,237.7,387.6,237.7C387.6,237.7,387.6,237.7,387.6,237.7L387.6,237.7z M112.4,213.3&#10;&#9;&#9;c-1,0-1.9-0.8-1.9-1.9v-13.2c0-1,0.8-1.9,1.9-1.9c1,0,1.9,0.8,1.9,1.9c0,0,0,0,0,0v13.2C114.3,212.5,113.4,213.3,112.4,213.3z&#10;&#9;&#9; M387.6,211.2c-1,0-1.9-0.8-1.9-1.9v-13.2c0-1,0.8-1.9,1.9-1.9c1,0,1.9,0.8,1.9,1.9c0,0,0,0,0,0v13.2&#10;&#9;&#9;C389.5,210.4,388.7,211.2,387.6,211.2C387.6,211.2,387.6,211.2,387.6,211.2z M112.4,186.8c-1,0-1.9-0.8-1.9-1.9v-13.2&#10;&#9;&#9;c0-1,0.8-1.9,1.9-1.9c1,0,1.9,0.8,1.9,1.9V185C114.2,186,113.4,186.8,112.4,186.8L112.4,186.8z M387.6,184.8c-1,0-1.9-0.8-1.9-1.9&#10;&#9;&#9;v-13.2c0-1,0.8-1.9,1.9-1.9c1,0,1.9,0.8,1.9,1.9v13.2C389.5,183.9,388.6,184.8,387.6,184.8z M112.4,160.4c-1,0-1.9-0.8-1.9-1.9&#10;&#9;&#9;v-13.2c0-1,0.8-1.9,1.9-1.9c1,0,1.9,0.8,1.9,1.9c0,0,0,0,0,0v13.2C114.3,159.5,113.4,160.4,112.4,160.4L112.4,160.4z M387.6,158.3&#10;&#9;&#9;c-1,0-1.9-0.8-1.9-1.9v-11.2c0-0.7,0-1.4,0-2c0-1,0.8-1.9,1.8-1.9c1,0,1.9,0.8,1.9,1.8c0,0.7,0,1.4,0,2.2v11.1&#10;&#9;&#9;C389.5,157.4,388.6,158.3,387.6,158.3L387.6,158.3z M114.1,134c-0.2,0-0.3,0-0.5-0.1c-1-0.3-1.6-1.3-1.3-2.3c0,0,0,0,0,0&#10;&#9;&#9;c1.2-4.4,2.9-8.7,5.2-12.6c0.5-0.9,1.7-1.2,2.6-0.7s1.2,1.7,0.7,2.6l0,0c-2.1,3.7-3.8,7.6-4.9,11.7&#10;&#9;&#9;C115.7,133.4,114.9,134,114.1,134z M385.3,132c-0.8,0-1.5-0.5-1.8-1.3c-1.3-4.1-3.1-7.9-5.3-11.5c-0.5-0.9-0.3-2,0.6-2.6&#10;&#9;&#9;c0.9-0.5,2-0.3,2.5,0.6c2.5,3.9,4.4,8,5.8,12.4c0.3,1-0.2,2-1.2,2.3c0,0,0,0,0,0C385.7,132,385.5,132,385.3,132L385.3,132z&#10;&#9;&#9; M127.2,111.4c-1,0-1.9-0.9-1.9-1.9c0-0.5,0.2-1,0.5-1.3c3.2-3.2,6.9-6,10.8-8.3c0.9-0.6,2-0.3,2.6,0.6c0.6,0.9,0.3,2-0.6,2.6&#10;&#9;&#9;c0,0-0.1,0-0.1,0.1c-3.7,2.1-7.1,4.7-10.1,7.8C128.2,111.2,127.7,111.4,127.2,111.4z M371.3,109.9c-0.5,0-0.9-0.2-1.3-0.5&#10;&#9;&#9;c-3.1-2.9-6.6-5.4-10.4-7.3c-0.9-0.5-1.2-1.6-0.7-2.5c0.5-0.9,1.6-1.2,2.5-0.8c4.1,2.1,7.8,4.8,11.2,7.9c0.8,0.7,0.8,1.9,0.1,2.6&#10;&#9;&#9;C372.4,109.7,371.8,109.9,371.3,109.9z M149.8,98.2c-1,0-1.9-0.9-1.8-1.9c0-0.8,0.6-1.5,1.4-1.8c4.4-1.2,9-1.8,13.6-1.8l0,0&#10;&#9;&#9;c1,0,1.9,0.8,1.9,1.9c0,1-0.8,1.9-1.9,1.9c0,0,0,0,0,0c-4.3,0-8.5,0.6-12.6,1.7C150.1,98.2,150,98.2,149.8,98.2z M348.2,97.7&#10;&#9;&#9;c-0.1,0-0.3,0-0.4,0c-3.5-0.8-7.1-1.2-10.7-1.2h-2c-1,0-1.9-0.8-1.9-1.9c0-1,0.8-1.9,1.9-1.9h2c3.9,0,7.8,0.4,11.6,1.2&#10;&#9;&#9;c1,0.2,1.7,1.2,1.4,2.2C349.8,97.1,349.1,97.7,348.2,97.7L348.2,97.7z M321.8,96.5h-13.2c-1,0-1.9-0.8-1.9-1.9c0-1,0.8-1.9,1.9-1.9&#10;&#9;&#9;h13.2c1,0,1.9,0.8,1.9,1.9C323.6,95.7,322.8,96.5,321.8,96.5C321.8,96.5,321.8,96.5,321.8,96.5z M295.3,96.5h-13.2&#10;&#9;&#9;c-1,0-1.9-0.8-1.9-1.9c0-1,0.8-1.9,1.9-1.9c0,0,0,0,0,0h13.2c1,0,1.9,0.8,1.9,1.9C297.2,95.7,296.3,96.5,295.3,96.5&#10;&#9;&#9;C295.3,96.5,295.3,96.5,295.3,96.5L295.3,96.5z M268.8,96.5h-13.2c-1,0-1.9-0.8-1.9-1.9c0-1,0.8-1.9,1.9-1.9h13.2&#10;&#9;&#9;c1,0,1.9,0.8,1.9,1.9C270.7,95.7,269.9,96.5,268.8,96.5C268.8,96.5,268.8,96.5,268.8,96.5L268.8,96.5z M242.3,96.5h-13.2&#10;&#9;&#9;c-1,0-1.9-0.8-1.9-1.9c0-1,0.8-1.9,1.9-1.9h13.2c1,0,1.9,0.8,1.9,1.9C244.2,95.7,243.4,96.5,242.3,96.5&#10;&#9;&#9;C242.3,96.5,242.3,96.5,242.3,96.5L242.3,96.5z M215.9,96.5h-13.2c-1,0-1.9-0.8-1.9-1.9c0-1,0.8-1.9,1.9-1.9c0,0,0,0,0,0h13.2&#10;&#9;&#9;c1,0,1.9,0.8,1.9,1.9C217.7,95.7,216.9,96.5,215.9,96.5L215.9,96.5z M189.4,96.5h-13.2c-1,0-1.9-0.8-1.9-1.9c0-1,0.8-1.9,1.9-1.9&#10;&#9;&#9;c0,0,0,0,0,0h13.2c1,0,1.9,0.8,1.9,1.9C191.3,95.7,190.4,96.5,189.4,96.5C189.4,96.5,189.4,96.5,189.4,96.5L189.4,96.5z"/>
	<path class="st1_data-processing-67" d="M112.4,173.9c-2.6,0-4.7-2.1-4.7-4.7v-24.3c0-30.5,24.8-55.3,55.3-55.3h40.8c2.6,0,4.7,2.1,4.7,4.7&#10;&#9;&#9;s-2.1,4.7-4.7,4.7l0,0H163c-25.4,0-45.9,20.6-45.9,45.9v24.2C117.1,171.7,115,173.8,112.4,173.9z"/>
	<path class="st1_data-processing-67" d="M195.2,110.6c-2.6,0-4.7-2.1-4.7-4.7c0-1.3,0.5-2.5,1.4-3.4l8.6-8.2l-8-7.5c-1.9-1.8-2-4.8-0.2-6.7&#10;&#9;&#9;c1.8-1.9,4.8-2,6.7-0.2l11.6,10.9c1.9,1.8,2,4.7,0.2,6.6c-0.1,0.1-0.1,0.1-0.2,0.2l-12.1,11.6C197.6,110.1,196.4,110.6,195.2,110.6&#10;&#9;&#9;z"/>
	<path class="st1_data-processing-67" d="M337,410.4h-40.9c-2.6,0-4.7-2.1-4.7-4.7c0-2.6,2.1-4.7,4.7-4.7c0,0,0,0,0,0H337c25.4,0,45.9-20.6,45.9-45.9&#10;&#9;&#9;v-24.3c0-2.6,2.1-4.7,4.7-4.7c2.6,0,4.7,2.1,4.7,4.7v24.2C392.3,385.6,367.5,410.3,337,410.4z"/>
	<path class="st1_data-processing-67" d="M304.2,421.2c-1.2,0-2.3-0.4-3.2-1.3l-11.6-10.9c-1.9-1.8-2-4.7-0.2-6.6c0.1-0.1,0.1-0.1,0.2-0.2l12.1-11.6&#10;&#9;&#9;c1.9-1.8,4.8-1.7,6.6,0.1c1.8,1.9,1.7,4.8-0.1,6.6l0,0l-8.6,8.2l8,7.5c1.9,1.8,2,4.7,0.2,6.6C306.8,420.7,305.6,421.2,304.2,421.2&#10;&#9;&#9;L304.2,421.2z"/>
</g>
<g id="setting_data-processing-67">
	<path class="st4_data-processing-67" d="M343.9,317.6c-0.1-2.2-1.7-4.1-3.9-4.6c-1.9-0.4-3.7-0.7-5.6-1c-0.5,0-1-0.4-1.1-0.9c-0.6-1.5-1.2-3-1.8-4.4&#10;&#9;&#9;c-0.2-0.4-0.2-0.8,0.1-1.1c1.1-1.6,2.3-3.1,3.3-4.7c1.2-1.9,1.1-4.3-0.4-6c-1.7-1.9-3.6-3.7-5.4-5.5c-1.8-2.1-5-2.4-7.2-0.7&#10;&#9;&#9;c-1.4,1-2.8,2-4.2,3c-0.3,0.3-0.8,0.3-1.1,0.1c-1.6-0.7-3.2-1.4-4.8-2c-0.4-0.1-0.7-0.5-0.7-0.9c-0.3-1.7-0.6-3.4-0.9-5.2&#10;&#9;&#9;c-0.4-2.5-2.5-4.4-5-4.5c-2.7-0.1-5.3-0.1-8,0c-2.3,0-4.3,1.7-4.8,3.9c-0.4,1.9-0.7,3.9-1,5.8c0,0.4-0.3,0.8-0.7,0.9&#10;&#9;&#9;c-1.5,0.6-3.1,1.3-4.6,2c-0.3,0.2-0.8,0.2-1.1-0.1c-1.5-1.1-3.1-2.3-4.6-3.3c-1.9-1.3-4.4-1.1-6.1,0.4c-2,1.9-4,3.8-5.9,5.8&#10;&#9;&#9;c-1.8,1.8-2,4.8-0.3,6.8c1,1.5,2.1,3,3.1,4.4c0.1,0.2,0.2,0.5,0.1,0.8c-0.7,1.7-1.3,3.3-2,5c-0.1,0.2-0.4,0.4-0.6,0.5&#10;&#9;&#9;c-1.7,0.3-3.4,0.6-5.2,0.9c-2.5,0.3-4.5,2.3-4.6,4.8c-0.1,2.8-0.1,5.5,0,8.3c0.1,2.2,1.7,4.1,3.8,4.6c2,0.4,4,0.7,6,1.1&#10;&#9;&#9;c0.4,0,0.7,0.3,0.8,0.7c0.6,1.6,1.3,3.1,2,4.7c0.2,0.3,0.2,0.7-0.1,1c-1,1.4-2.1,2.9-3.1,4.3c-1.6,2.1-1.4,5.2,0.6,7&#10;&#9;&#9;c1.7,1.7,3.3,3.4,5,5c1.9,2,5,2.1,7.1,0.4c1.5-1,2.9-2,4.3-3.1c0.3-0.2,0.6-0.3,0.9-0.1c1.5,0.6,2.9,1.3,4.4,1.8&#10;&#9;&#9;c0.5,0.1,0.8,0.5,0.8,1c0.3,1.7,0.5,3.4,0.8,5.1c0.3,2.4,2.3,4.3,4.8,4.5c2.8,0.1,5.6,0.1,8.4,0c2.2-0.1,4.1-1.7,4.6-3.9&#10;&#9;&#9;c0.4-1.9,0.7-3.8,1-5.7c0-0.5,0.3-0.9,0.8-1c1.6-0.6,3.1-1.2,4.6-1.9c0.3-0.2,0.7-0.1,1,0.1c1.4,1,2.9,2,4.3,3.1&#10;&#9;&#9;c1,0.7,2.2,1.1,3.5,1c1.2,0,2.3-0.5,3.1-1.3c1.8-1.7,3.6-3.5,5.4-5.3c2.1-1.9,2.4-5.1,0.6-7.3c-1-1.4-2-2.8-3-4.2&#10;&#9;&#9;c-0.2-0.3-0.3-0.7-0.1-1c0.7-1.5,1.3-3.1,2-4.7c0.1-0.4,0.5-0.7,0.9-0.7c1.7-0.3,3.4-0.5,5.2-0.8c2.5-0.3,4.4-2.4,4.5-4.9&#10;&#9;&#9;C344,323,343.9,320.3,343.9,317.6z M301.3,340.1c-10.1,0-18.3-8.3-18.3-18.4s8.3-18.3,18.4-18.3c10.1,0,18.3,8.3,18.3,18.4&#10;&#9;&#9;C319.7,331.9,311.5,340.1,301.3,340.1L301.3,340.1z"/>
	<path class="st1_data-processing-67" d="M301.5,341.6h-0.2c-5.3,0-10.4-2.2-14.2-6c-3.7-3.7-5.7-8.7-5.6-13.9c0.1-10.9,8.9-19.7,19.8-19.8l0,0&#10;&#9;&#9;c11,0,19.8,8.9,19.8,19.8c0,5.3-2.1,10.4-5.9,14.2C311.6,339.5,306.6,341.6,301.5,341.6z M301.3,338.6h0.1c4.4,0,8.6-1.7,11.7-4.8&#10;&#9;&#9;c3.2-3.2,5.1-7.5,5.1-12c0-9.3-7.6-16.8-16.9-16.9l0,0c-9.3,0-16.8,7.5-16.8,16.7c0,0,0,0.1,0,0.1c-0.1,4.4,1.7,8.7,4.8,11.8&#10;&#9;&#9;C292.5,336.7,296.8,338.5,301.3,338.6L301.3,338.6z"/>
	<path class="st1_data-processing-67" d="M301.3,365.8c-1.4,0-2.8,0-4.2-0.1c-3.2-0.2-5.7-2.6-6.2-5.7c-0.3-1.7-0.6-3.4-0.8-5c-1.5-0.5-2.9-1.1-4.1-1.7&#10;&#9;&#9;c-1.3,1-2.7,1.9-4.1,2.9c-2.7,2.1-6.6,1.8-9-0.7c-1.6-1.6-3.3-3.3-5.1-5.1c-2.5-2.3-2.8-6.1-0.8-8.9c0.9-1.3,1.8-2.6,2.9-4.1&#10;&#9;&#9;c-0.7-1.6-1.3-3-1.8-4.3l-1.1-0.2c-1.5-0.3-3.1-0.5-4.7-0.9c-2.8-0.7-4.9-3.1-5-6c-0.1-3-0.1-5.7,0-8.4c0.2-3.2,2.7-5.9,5.9-6.3&#10;&#9;&#9;c1.5-0.2,3.1-0.5,4.8-0.8c0.6-1.4,1.2-2.9,1.8-4.3c-0.5-0.7-1-1.4-1.5-2.1s-1-1.3-1.4-2c-2-2.6-1.8-6.3,0.5-8.6&#10;&#9;&#9;c1.8-1.9,3.7-3.9,5.9-5.9c2.2-2,5.5-2.2,7.9-0.5c1.5,1,3,2.1,4.5,3.2c1.6-0.7,3-1.3,4.3-1.8l0.1-0.9c0.2-1.6,0.5-3.2,0.9-4.8&#10;&#9;&#9;c0.7-2.9,3.2-5,6.2-5.1c2.7-0.1,5.4-0.1,8,0c3.2,0.1,5.9,2.5,6.4,5.7c0.3,1.6,0.6,3.3,0.8,5c1.5,0.6,3,1.2,4.5,1.9&#10;&#9;&#9;c1.3-0.9,2.6-1.9,4-2.9c2.8-2.1,6.7-1.8,9.1,0.8l1.4,1.4c1.4,1.3,2.7,2.7,4,4.2c2,2.2,2.2,5.4,0.6,7.8c-0.9,1.5-2,2.9-3,4.2&#10;&#9;&#9;l-0.3,0.4c0.7,1.7,1.3,3,1.8,4.3c2,0.3,3.8,0.6,5.7,1c2.9,0.7,4.9,3.2,5,6.1l0,0c0.1,2.9,0.1,5.6,0,8.2c-0.1,3.2-2.5,5.9-5.8,6.4&#10;&#9;&#9;c-1.7,0.3-3.3,0.6-5,0.8c-0.5,1.4-1.1,2.8-1.8,4.3c1,1.3,1.9,2.7,2.8,4c2.2,2.8,1.8,6.8-0.8,9.2l-1,1c-1.4,1.4-2.9,2.9-4.4,4.3&#10;&#9;&#9;c-1.1,1.1-2.6,1.7-4.1,1.7c-1.6,0.1-3.1-0.4-4.4-1.3l-1.8-1.3l-2.3-1.7c-1.6,0.7-3,1.3-4.3,1.8l-0.1,0.8c-0.3,1.6-0.5,3.2-0.9,4.8&#10;&#9;&#9;c-0.6,2.9-3.1,5-6.1,5.1C304,365.8,302.6,365.8,301.3,365.8z M285.8,350.2c0.3,0,0.7,0.1,1,0.2c1.3,0.6,2.9,1.2,4.4,1.8&#10;&#9;&#9;c1,0.3,1.7,1.2,1.8,2.2c0.2,1.7,0.5,3.4,0.8,5c0.2,1.7,1.6,3.1,3.3,3.2c2.6,0.1,5.3,0.1,8.3,0c1.6-0.1,2.9-1.2,3.2-2.7&#10;&#9;&#9;c0.3-1.5,0.6-3.1,0.8-4.7l0.1-0.9c0.1-1,0.8-1.8,1.7-2.1c1.4-0.5,2.8-1.1,4.5-1.9c0.8-0.4,1.8-0.3,2.5,0.3c0.8,0.6,1.7,1.2,2.5,1.8&#10;&#9;&#9;l1.8,1.3c0.7,0.5,1.6,0.8,2.5,0.8h0.1c0.8,0,1.5-0.3,2.1-0.9c1.5-1.4,2.9-2.9,4.3-4.3l1-1c1.6-1.3,1.8-3.7,0.5-5.4c0,0,0,0,0,0&#10;&#9;&#9;c-1-1.4-2-2.8-3-4.2c-0.6-0.7-0.7-1.7-0.3-2.5c0.7-1.6,1.3-3.1,1.9-4.6c0.3-0.9,1.1-1.5,2.1-1.6c1.7-0.3,3.4-0.5,5.1-0.8&#10;&#9;&#9;c1.8-0.2,3.2-1.7,3.3-3.5c0.1-2.6,0.1-5.2,0-8.1l0,0c-0.1-1.6-1.2-2.9-2.7-3.2c-1.8-0.4-3.6-0.7-5.5-1c-1.1-0.1-2-0.9-2.3-1.9&#10;&#9;&#9;c-0.5-1.3-1-2.6-1.8-4.4c-0.4-0.8-0.3-1.9,0.2-2.6l0.4-0.6c1-1.3,2-2.7,2.9-4.1c0.9-1.3,0.8-3-0.3-4.2c-1.2-1.4-2.6-2.7-3.9-4&#10;&#9;&#9;l-1.3-1.3c-1.3-1.6-3.7-1.8-5.3-0.5c-1.5,1.1-2.9,2-4.2,3c-0.7,0.6-1.8,0.7-2.6,0.3c-1.6-0.7-3.2-1.4-4.8-2c-0.9-0.3-1.6-1.1-1.7-2&#10;&#9;&#9;c-0.3-1.7-0.5-3.4-0.9-5.1c-0.2-1.8-1.7-3.2-3.5-3.2c-2.6-0.1-5.2-0.1-7.9,0c-1.6,0-3,1.2-3.4,2.8c-0.3,1.5-0.6,3.1-0.9,4.6&#10;&#9;&#9;l-0.2,1.1c-0.1,0.9-0.8,1.7-1.7,2c-1.4,0.5-2.9,1.2-4.5,1.9c-0.8,0.4-1.8,0.3-2.6-0.2l-0.2-0.1c-1.4-1-2.9-2.1-4.4-3.1&#10;&#9;&#9;c-1.3-0.9-3.1-0.8-4.2,0.2c-2.1,2-4,3.8-5.8,5.7c-1.3,1.3-1.4,3.5-0.2,4.9l1.4,2c0.6,0.8,1.2,1.6,1.8,2.5c0.4,0.7,0.5,1.5,0.2,2.2&#10;&#9;&#9;c-0.7,1.7-1.3,3.4-2,5c-0.3,0.7-1,1.2-1.7,1.4c-1.8,0.3-3.5,0.6-5.2,0.9c-1.8,0.2-3.2,1.6-3.4,3.4c-0.1,2.6-0.1,5.3,0,8.2&#10;&#9;&#9;c0.1,1.5,1.2,2.8,2.6,3.2c1.5,0.3,3,0.6,4.5,0.9l1.3,0.2c0.9,0.1,1.7,0.7,2,1.6c0.5,1.4,1.2,2.9,2,4.6c0.4,0.8,0.3,1.8-0.2,2.5&#10;&#9;&#9;c-1.2,1.6-2.1,2.9-3.1,4.3c-1.2,1.5-1,3.8,0.4,5.1c1.7,1.8,3.4,3.4,5,5c1.3,1.5,3.7,1.7,5.2,0.4c1.4-1,2.9-2,4.3-3&#10;&#9;&#9;C284.9,350.4,285.4,350.3,285.8,350.2L285.8,350.2z M268.3,310.6L268.3,310.6z"/>
</g>
</svg>